<?xml version="1.0" encoding="utf-8"?>
<!-- Generator: Adobe Illustrator 15.1.0, SVG Export Plug-In . SVG Version: 6.00 Build 0)  -->
<!DOCTYPE svg PUBLIC "-//W3C//DTD SVG 1.1//EN" "http://www.w3.org/Graphics/SVG/1.1/DTD/svg11.dtd">
<svg version="1.1" id="cielodespejado_x5F_dia" xmlns="http://www.w3.org/2000/svg" xmlns:xlink="http://www.w3.org/1999/xlink"
	 x="0px" y="0px" width="126px" height="126px" viewBox="0 0 126 126" enable-background="new 0 0 126 126" xml:space="preserve">
<g>
	<path fill="#FFFFFF" d="M34.563,41.523c0.93,0.93,2.166,1.441,3.48,1.441c1.315,0,2.551-0.512,3.479-1.441
		c0.93-0.929,1.442-2.164,1.442-3.479c0-1.314-0.512-2.55-1.442-3.48l-5.545-5.544c-0.929-0.931-2.165-1.443-3.479-1.443
		c-1.314,0-2.55,0.513-3.479,1.441c-0.931,0.93-1.443,2.166-1.443,3.48s0.512,2.551,1.442,3.479L34.563,41.523z"/>
	<path fill="#FFFFFF" d="M63.002,32.627c2.713,0,4.922-2.209,4.922-4.923v-7.842c0-2.714-2.209-4.922-4.922-4.922
		c-2.715,0-4.923,2.208-4.923,4.922v7.842C58.079,30.418,60.287,32.627,63.002,32.627z"/>
	<path fill="#FFFFFF" d="M87.959,42.965c1.316,0,2.553-0.512,3.482-1.441l5.547-5.547c1.912-1.918,1.912-5.038-0.002-6.958
		c-0.93-0.931-2.166-1.442-3.482-1.442s-2.553,0.514-3.477,1.442l-5.547,5.545c-0.93,0.93-1.441,2.166-1.441,3.48
		s0.512,2.55,1.441,3.479C85.406,42.452,86.643,42.965,87.959,42.965z"/>
	<path fill="#FFFFFF" d="M38.043,83.038c-1.314,0-2.55,0.511-3.48,1.439l-5.544,5.545c-0.931,0.929-1.443,2.165-1.443,3.479
		s0.512,2.551,1.442,3.479c0.929,0.93,2.165,1.442,3.479,1.442c1.314,0,2.55-0.513,3.479-1.442l5.546-5.545
		c0.93-0.93,1.442-2.165,1.442-3.479s-0.512-2.55-1.442-3.479C40.593,83.549,39.358,83.038,38.043,83.038z"/>
	<path fill="#FFFFFF" d="M32.626,62.999c0-2.713-2.208-4.921-4.921-4.922H19.86c-2.713,0-4.92,2.208-4.92,4.922
		s2.208,4.921,4.92,4.921h7.843C30.418,67.92,32.626,65.713,32.626,62.999z"/>
	<path fill="#FFFFFF" d="M91.439,84.477c-0.93-0.929-2.168-1.44-3.482-1.44s-2.551,0.513-3.477,1.441
		c-0.93,0.929-1.441,2.165-1.441,3.479s0.512,2.551,1.441,3.479l5.545,5.543c0.926,0.932,2.162,1.444,3.479,1.444
		s2.553-0.513,3.484-1.443c1.912-1.918,1.912-5.039-0.002-6.958L91.439,84.477z"/>
	<path fill="#FFFFFF" d="M63.002,93.372c-2.715,0-4.923,2.208-4.923,4.922v7.844c0,2.714,2.208,4.922,4.923,4.922
		c2.713,0,4.922-2.208,4.922-4.922v-7.844C67.924,95.58,65.715,93.372,63.002,93.372z"/>
	<path fill="#FFFFFF" d="M106.137,58.077h-7.84c-2.715,0-4.922,2.208-4.922,4.922s2.207,4.921,4.922,4.921h7.84
		c2.715,0,4.922-2.207,4.922-4.921S108.852,58.077,106.137,58.077z"/>
	<path fill="#FFFFFF" d="M63.002,38.468c-13.527,0-24.533,11.005-24.533,24.531S49.475,87.53,63.002,87.53
		c13.525,0,24.529-11.005,24.529-24.531S76.527,38.468,63.002,38.468z M63.002,77.688c-8.1,0-14.688-6.589-14.688-14.688
		s6.589-14.688,14.688-14.688c8.098,0,14.686,6.589,14.686,14.688S71.1,77.688,63.002,77.688z"/>
</g>
</svg>
