<?xml version="1.0" encoding="utf-8"?>
<!-- Generator: Adobe Illustrator 15.1.0, SVG Export Plug-In . SVG Version: 6.00 Build 0)  -->
<!DOCTYPE svg PUBLIC "-//W3C//DTD SVG 1.1//EN" "http://www.w3.org/Graphics/SVG/1.1/DTD/svg11.dtd">
<svg version="1.1" id="cielodespejado_x5F_noche" xmlns="http://www.w3.org/2000/svg" xmlns:xlink="http://www.w3.org/1999/xlink"
	 x="0px" y="0px" width="126px" height="126px" viewBox="0 0 126 126" enable-background="new 0 0 126 126" xml:space="preserve">
<path fill="#FFFFFF" d="M94.934,62.608l-0.006-0.186c-0.007-0.328-0.147-0.64-0.39-0.862c-0.244-0.22-0.572-0.325-0.894-0.312
	c-0.679,0.049-1.362,0.082-2.054,0.082c-16.02,0-29.265-13.031-29.527-29.051c-0.006-0.328-0.145-0.64-0.388-0.862
	c-0.243-0.224-0.567-0.333-0.894-0.314C44.114,32.249,31.058,46.242,31.058,62.96c0,17.613,14.33,31.94,31.942,31.94
	c17.613,0,31.942-14.327,31.942-31.94C94.942,62.843,94.938,62.726,94.934,62.608z M54.058,43.125
	c3.279,13.458,15.007,24.419,29.766,27.815c-2.765,9.239-9.854,14.307-20.088,14.307c-12.525,0-22.716-10.191-22.716-22.716
	C41.019,52.113,45.287,45.752,54.058,43.125z"/>
</svg>
