<?xml version="1.0" encoding="utf-8"?>
<!-- Generator: Adobe Illustrator 15.1.0, SVG Export Plug-In . SVG Version: 6.00 Build 0)  -->
<!DOCTYPE svg PUBLIC "-//W3C//DTD SVG 1.1//EN" "http://www.w3.org/Graphics/SVG/1.1/DTD/svg11.dtd">
<svg version="1.1" id="pocasnubes_x5F_dia" xmlns="http://www.w3.org/2000/svg" xmlns:xlink="http://www.w3.org/1999/xlink" x="0px"
	 y="0px" width="126px" height="126px" viewBox="0 0 126 126" enable-background="new 0 0 126 126" xml:space="preserve">
<g>
	<path fill="#FFFFFF" d="M76.727,32.878c1.996,0,3.611-1.615,3.609-3.612v-7.223c0-1.994-1.616-3.611-3.609-3.611
		c-1.994,0-3.614,1.617-3.614,3.614v7.222C73.112,31.261,74.73,32.878,76.727,32.878z"/>
	<path fill="#FFFFFF" d="M102.268,41.343l5.107-5.107c1.415-1.409,1.415-3.698,0-5.108c-1.411-1.41-3.694-1.41-5.107,0l-5.109,5.108
		c-1.409,1.411-1.409,3.697,0,5.107C98.571,42.751,100.856,42.751,102.268,41.343z"/>
	<path fill="#FFFFFF" d="M116.461,58.165h-7.226c-1.995,0-3.613,1.615-3.613,3.609c0,1.993,1.618,3.612,3.613,3.612h7.226
		c1.991,0,3.611-1.619,3.611-3.612S118.452,58.165,116.461,58.165z"/>
	<path fill="#FFFFFF" d="M51.184,41.343c1.413,1.408,3.701,1.408,5.109,0c1.411-1.41,1.411-3.696,0-5.107l-5.109-5.108
		c-1.408-1.41-3.696-1.41-5.105,0c-1.411,1.41-1.411,3.699,0,5.108L51.184,41.343z"/>
	<path fill="#FFFFFF" d="M98.287,63.927c0.074-0.71,0.113-1.427,0.115-2.152c0-11.967-9.709-21.671-21.676-21.671
		c-6.744,0-12.756,3.092-16.728,7.925c-0.082,0.1-0.151,0.21-0.221,0.315c-0.404,0.603-0.844,1.205-1.177,1.854
		c-1.547-0.299-3.135-0.47-4.755-0.47c-13.476,0-24.515,10.634-25.166,23.949c-6.189,0.739-11.495,4.846-13.791,10.582
		c-5.143,1.283-8.962,5.945-8.962,11.479c0,6.522,5.308,11.831,11.832,11.831h69.926c12.747,0,23.117-10.37,23.117-23.112
		C110.803,75.531,105.711,67.775,98.287,63.927z M66.094,51.997c0.337-0.394,0.733-0.758,1.121-1.097
		c2.539-2.224,5.866-3.572,9.512-3.572c7.922,0,14.355,6.378,14.443,14.275c-1.136-0.173-2.3-0.263-3.484-0.263
		c-3.912,0-7.697,0.977-11.058,2.811c-2.351-4.953-6.269-8.971-11.049-11.498C65.73,52.471,66.057,52.042,66.094,51.997z
		 M87.686,99.408H17.758c-2.024,0-3.671-1.645-3.671-3.671c0-1.999,1.606-3.63,3.596-3.67c0.066,0.001,0.134,0.005,0.199,0.008
		l3.451,0.114l0.681-3.385c0.825-4.106,4.473-7.087,8.67-7.087c0.503,0,1.023,0.047,1.546,0.14l5.512,0.969l-0.766-5.547
		c-0.11-0.798-0.167-1.592-0.167-2.354c0-9.396,7.646-17.041,17.038-17.041c8.071,0,15.092,5.73,16.694,13.624l1.474,7.242
		l5.344-5.104c2.8-2.675,6.465-4.147,10.327-4.147c8.248,0,14.955,6.708,14.955,14.956C102.641,92.702,95.933,99.408,87.686,99.408z
		"/>
</g>
</svg>
