<?xml version="1.0" encoding="utf-8"?>
<!-- Generator: Adobe Illustrator 15.1.0, SVG Export Plug-In . SVG Version: 6.00 Build 0)  -->
<!DOCTYPE svg PUBLIC "-//W3C//DTD SVG 1.1//EN" "http://www.w3.org/Graphics/SVG/1.1/DTD/svg11.dtd">
<svg version="1.1" id="pocasnubes_x5F_noche" xmlns="http://www.w3.org/2000/svg" xmlns:xlink="http://www.w3.org/1999/xlink"
	 x="0px" y="0px" width="126px" height="126px" viewBox="0 0 126 126" enable-background="new 0 0 126 126" xml:space="preserve">
<path fill="#FFFFFF" d="M105.217,59.786l-0.012-0.033c2.273-3.626,3.594-7.913,3.594-12.501c0-0.08-0.002-0.162-0.004-0.241
	l-0.004-0.15c-0.002-0.187-0.082-0.362-0.219-0.487c-0.139-0.126-0.318-0.189-0.504-0.177c-0.594,0.042-1.086,0.06-1.547,0.06
	c-12.074,0-22.063-9.823-22.26-21.896c-0.004-0.184-0.082-0.36-0.215-0.484c-0.141-0.128-0.324-0.19-0.506-0.178
	c-11.395,0.784-20.5,9.688-21.811,20.795c-0.002,0.016-0.002,0.028-0.004,0.042l0,0c0.002-0.014,0.002-0.026,0.004-0.042
	c-1.07-0.14-2.158-0.224-3.262-0.224c-13.523,0-24.598,10.67-25.252,24.031c-6.211,0.74-11.535,4.863-13.836,10.617
	c-5.16,1.287-8.992,5.964-8.992,11.518c0,6.543,5.326,11.869,11.871,11.869h70.158c12.791,0,23.193-10.404,23.193-23.19
	C115.611,71.054,111.475,63.945,105.217,59.786z M78.666,32.175C81.035,42.307,89.877,50.572,101,53.044
	c-0.416,1.449-0.973,2.757-1.656,3.934c-0.016,0.026-0.033,0.053-0.047,0.077l0,0c0.014-0.024,0.031-0.051,0.047-0.077
	c-2.188-0.686-4.514-1.055-6.926-1.055c-3.924,0-7.723,0.978-11.092,2.819c-2.625-5.529-7.191-9.893-12.73-12.331l-0.023-0.038
	C68.732,38.841,72.121,34.063,78.666,32.175z M92.418,94.119h-70.16c-2.031,0-3.684-1.653-3.684-3.685
	c0-2.008,1.613-3.645,3.607-3.685c0.066,0.002,0.135,0.005,0.201,0.011l3.461,0.11l0.684-3.396c0.828-4.118,4.488-7.109,8.699-7.109
	c0.506,0,1.025,0.046,1.549,0.14l5.533,0.972l-0.77-5.563c-0.111-0.804-0.168-1.601-0.168-2.364c0-9.427,7.67-17.095,17.098-17.095
	c8.098,0,15.141,5.748,16.75,13.668l1.477,7.269l5.361-5.124c2.809-2.682,6.484-4.159,10.361-4.159
	c8.275,0,15.006,6.731,15.006,15.004C107.424,87.389,100.693,94.119,92.418,94.119z"/>
</svg>
