<?xml version="1.0" encoding="utf-8"?>
<!-- Generator: Adobe Illustrator 15.1.0, SVG Export Plug-In . SVG Version: 6.00 Build 0)  -->
<!DOCTYPE svg PUBLIC "-//W3C//DTD SVG 1.1//EN" "http://www.w3.org/Graphics/SVG/1.1/DTD/svg11.dtd">
<svg version="1.1" id="nubosidad_x5F_variable" xmlns="http://www.w3.org/2000/svg" xmlns:xlink="http://www.w3.org/1999/xlink"
	 x="0px" y="0px" width="126px" height="126px" viewBox="0 0 126 126" enable-background="new 0 0 126 126" xml:space="preserve">
<g>
	<path fill="#FFFFFF" d="M106.643,35.05c-3.215,0-6.326,0.802-9.089,2.311c-3.362-7.085-10.608-11.858-18.727-11.858
		c-10.708,0-19.52,8.175-20.581,18.608c-3.185-1.46-6.708-2.269-10.379-2.269c-13.383,0-24.343,10.561-24.991,23.783
		c-6.146,0.732-11.415,4.813-13.694,10.506c-5.105,1.278-8.9,5.904-8.9,11.4c0,6.477,5.271,11.749,11.75,11.749h69.436
		c12.659,0,22.955-10.296,22.955-22.953c0-1.113-0.083-2.21-0.237-3.279h-0.01c-0.003-0.028-0.007-0.057-0.012-0.086l0.007,0.003
		c0.004,0.028,0.011,0.055,0.015,0.083h2.456c10.477,0,18.999-8.524,18.999-19C125.642,43.573,117.118,35.05,106.643,35.05z
		 M81.469,91.18H12.032c-2.011,0-3.647-1.635-3.647-3.647c0-1.983,1.596-3.606,3.571-3.645c0.066,0.003,0.133,0.008,0.197,0.01
		l3.426,0.109l0.677-3.361c0.82-4.077,4.442-7.037,8.608-7.037c0.501,0,1.018,0.048,1.536,0.139l5.474,0.962l-0.76-5.505
		c-0.109-0.798-0.167-1.583-0.167-2.34c0-9.329,7.591-16.92,16.92-16.92c0.424,0,1.1,0.051,1.534,0.084
		c2.659,0.244,5.163,1.11,7.35,2.466c3.867,2.393,6.745,6.296,7.695,10.979l0.582,2.867h0.008l0.871,4.324l4.516-4.324h0.013
		l0.779-0.745c2.779-2.655,6.419-4.116,10.254-4.116c4.342,0,8.241,1.882,10.96,4.861c1.67,1.832,2.937,4.209,3.53,6.708h-0.016
		c0.238,1.056,0.377,2.151,0.377,3.279C96.32,84.517,89.658,91.18,81.469,91.18z M106.643,66.341h-4.509
		c-3.722-7.667-11.586-12.966-20.665-12.966c-3.884,0-7.643,0.971-10.979,2.792c-1.344-2.834-3.214-5.353-5.455-7.466L64.96,48.15
		c-0.091-0.659-0.137-1.309-0.137-1.936c0-7.722,6.282-14.004,14.004-14.004c6.635,0,12.406,4.709,13.723,11.197l1.211,5.956
		l4.394-4.2c2.299-2.197,5.313-3.405,8.488-3.405c6.779,0,12.293,5.512,12.293,12.291S113.421,66.341,106.643,66.341z"/>
</g>
</svg>
