<?xml version="1.0" encoding="utf-8"?>
<!-- Generator: Adobe Illustrator 15.1.0, SVG Export Plug-In . SVG Version: 6.00 Build 0)  -->
<!DOCTYPE svg PUBLIC "-//W3C//DTD SVG 1.1//EN" "http://www.w3.org/Graphics/SVG/1.1/DTD/svg11.dtd">
<svg version="1.1" id="lluvia_x5F_fuerte" xmlns="http://www.w3.org/2000/svg" xmlns:xlink="http://www.w3.org/1999/xlink" x="0px"
	 y="0px" width="126px" height="126px" viewBox="0 0 126 126" enable-background="new 0 0 126 126" xml:space="preserve">
<g>
	<g>
		<path fill="#FFFFFF" d="M97.878,69.387H14.705c-7.758,0-14.075-6.309-14.075-14.066c0-6.582,4.545-12.122,10.661-13.648
			c2.732-6.821,9.04-11.702,16.403-12.578C28.468,13.263,41.597,0.62,57.629,0.62c11.742,0,22.227,6.902,27.092,17.155
			c4.001-2.186,8.498-3.351,13.156-3.351c15.157,0,27.492,12.33,27.492,27.484C125.37,57.054,113.035,69.387,97.878,69.387
			L97.878,69.387z M14.613,50.955c-2.364,0.052-4.278,1.991-4.278,4.366c0,2.404,1.96,4.364,4.37,4.364h83.169
			c9.813,0,17.788-7.976,17.788-17.776c0-9.802-7.976-17.78-17.788-17.78c-4.595,0-8.959,1.75-12.284,4.929l-6.358,6.069
			l-1.75-8.609c-1.9-9.385-10.256-16.193-19.852-16.193c-11.177,0-20.268,9.083-20.268,20.253c0,0.907,0.068,1.845,0.195,2.802
			l0.914,6.59l-6.559-1.15c-0.618-0.109-1.239-0.164-1.837-0.164c-4.991,0-9.332,3.542-10.311,8.424l-0.813,4.025l-4.103-0.13
			C14.769,50.966,14.695,50.964,14.613,50.955L14.613,50.955z"/>
	</g>
	<path fill="#FFFFFF" d="M37.387,79.986L37.387,79.986L37.387,79.986L37.387,79.986L37.387,79.986L37.387,79.986L37.387,79.986
		L37.387,79.986L37.387,79.986L37.387,79.986L37.387,79.986L37.387,79.986L37.387,79.986L37.387,79.986L37.387,79.986L37.387,79.986
		L37.387,79.986L37.387,79.986L37.387,79.986L37.387,79.986z M37.387,79.986L37.387,79.986L37.387,79.986L37.387,79.986
		L37.387,79.986L37.387,79.986L37.387,79.986L37.387,79.986L37.387,79.986L37.387,79.986L37.387,79.986z M37.387,79.986
		L37.387,79.986L37.387,79.986L37.387,79.986L37.387,79.986L37.387,79.986L37.387,79.986z M37.387,79.986L37.387,79.986
		L37.387,79.986L37.387,79.986L37.387,79.986z M37.387,79.986L37.387,79.986L37.387,79.986L37.387,79.986L37.387,79.986z"/>
	<path fill="#FFFFFF" d="M37.387,75.99c-1.65,6.31-0.706,9.441-1.166,16.224c-0.443,6.568-7.145,9.567-12.087,6.717
		c-4.94-2.849-5.689-10.147-0.215-13.819C29.559,81.327,32.737,80.577,37.387,75.99z"/>
	<path fill="#FFFFFF" d="M66.425,79.986L66.425,79.986L66.425,79.986L66.425,79.986L66.425,79.986L66.425,79.986L66.425,79.986
		L66.425,79.986L66.425,79.986L66.425,79.986L66.425,79.986L66.425,79.986L66.425,79.986L66.425,79.986L66.425,79.986L66.425,79.986
		L66.425,79.986L66.425,79.986L66.425,79.986L66.425,79.986z M66.425,79.986L66.425,79.986L66.425,79.986L66.425,79.986
		L66.425,79.986L66.425,79.986L66.425,79.986L66.425,79.986L66.425,79.986L66.425,79.986L66.425,79.986z M66.425,79.986
		L66.425,79.986L66.425,79.986L66.425,79.986L66.425,79.986L66.425,79.986L66.425,79.986z M66.425,79.986L66.425,79.986
		L66.425,79.986L66.425,79.986L66.425,79.986z M66.425,79.986L66.425,79.986L66.425,79.986L66.425,79.986L66.425,79.986z"/>
	<path fill="#FFFFFF" d="M71.271,75.99c-1.65,6.31-0.707,9.441-1.168,16.224c-0.443,6.568-7.147,9.567-12.085,6.717
		c-4.944-2.849-5.324-10.147,0.152-13.819C63.813,81.327,66.62,80.577,71.271,75.99z"/>
	<path fill="#FFFFFF" d="M49.032,101.341c-1.653,6.311-0.707,9.442-1.169,16.223c-0.443,6.57-7.145,9.568-12.085,6.721
		c-4.941-2.853-5.691-10.149-0.216-13.824C41.203,106.677,44.381,105.929,49.032,101.341z"/>
	<path fill="#FFFFFF" d="M82.91,101.341c-1.65,6.311-0.703,9.442-1.167,16.223c-0.442,6.57-7.142,9.568-12.082,6.721
		c-4.944-2.853-5.327-10.149,0.148-13.824C75.454,106.677,78.264,105.929,82.91,101.341z"/>
	<path fill="#FFFFFF" d="M97.25,79.986L97.25,79.986L97.25,79.986L97.25,79.986L97.25,79.986L97.25,79.986L97.25,79.986
		L97.25,79.986L97.25,79.986L97.25,79.986L97.25,79.986L97.25,79.986L97.25,79.986L97.25,79.986L97.25,79.986L97.25,79.986
		L97.25,79.986L97.25,79.986L97.25,79.986L97.25,79.986z M97.25,79.986L97.25,79.986L97.25,79.986L97.25,79.986L97.25,79.986
		L97.25,79.986L97.25,79.986L97.25,79.986L97.25,79.986L97.25,79.986L97.25,79.986z M97.25,79.986L97.25,79.986L97.25,79.986
		L97.25,79.986L97.25,79.986L97.25,79.986L97.25,79.986z M97.25,79.986L97.25,79.986L97.25,79.986L97.25,79.986L97.25,79.986z
		 M97.25,79.986L97.25,79.986L97.25,79.986L97.25,79.986L97.25,79.986z"/>
	<path fill="#FFFFFF" d="M105.888,75.99c-1.65,6.31-0.707,9.441-1.168,16.224c-0.439,6.568-7.144,9.567-12.081,6.717
		c-4.943-2.849-5.693-10.147-0.218-13.819C98.059,81.327,101.238,80.577,105.888,75.99z"/>
</g>
</svg>
