<?xml version="1.0" encoding="utf-8"?>
<!-- Generator: Adobe Illustrator 15.1.0, SVG Export Plug-In . SVG Version: 6.00 Build 0)  -->
<!DOCTYPE svg PUBLIC "-//W3C//DTD SVG 1.1//EN" "http://www.w3.org/Graphics/SVG/1.1/DTD/svg11.dtd">
<svg version="1.1" id="tormenta" xmlns="http://www.w3.org/2000/svg" xmlns:xlink="http://www.w3.org/1999/xlink" x="0px" y="0px"
	 width="126px" height="126px" viewBox="0 0 126 126" enable-background="new 0 0 126 126" xml:space="preserve">
<g>
	<path fill="#FFFFFF" d="M97.88,14.667c-4.653,0-9.156,1.163-13.155,3.349C79.862,7.761,69.374,0.855,57.63,0.855
		c-16.033,0-29.166,12.65-29.939,28.488c-7.36,0.878-13.67,5.764-16.401,12.586C5.172,43.458,0.63,49.001,0.63,55.586
		c0,7.76,6.314,14.074,14.074,14.074h34.702l-5.282,10.604h8.061l-15.652,24.032l41.104-29.139L64.27,75.001l4.995-5.339h28.612
		c15.162,0,27.5-12.341,27.5-27.498C125.377,27.001,113.039,14.667,97.88,14.667z M97.88,59.955H14.704
		c-2.411,0-4.37-1.959-4.37-4.369c0-2.377,1.912-4.316,4.279-4.371c0.077,0.009,0.155,0.013,0.232,0.016l4.107,0.134l0.812-4.031
		c0.982-4.881,5.32-8.425,10.31-8.425c0.603,0,1.222,0.054,1.841,0.162l6.558,1.154l-0.912-6.592
		c-0.128-0.956-0.194-1.897-0.194-2.809c0-11.173,9.089-20.261,20.266-20.261c9.6,0,17.953,6.812,19.853,16.201l1.756,8.617
		l6.36-6.079c3.324-3.175,7.688-4.927,12.28-4.927c9.813,0,17.79,7.982,17.79,17.789C115.672,51.971,107.692,59.955,97.88,59.955z"
		/>
</g>
</svg>
