<?xml version="1.0" encoding="utf-8"?>
<!-- Generator: Adobe Illustrator 15.1.0, SVG Export Plug-In . SVG Version: 6.00 Build 0)  -->
<!DOCTYPE svg PUBLIC "-//W3C//DTD SVG 1.1//EN" "http://www.w3.org/Graphics/SVG/1.1/DTD/svg11.dtd">
<svg version="1.1" id="nieve" xmlns="http://www.w3.org/2000/svg" xmlns:xlink="http://www.w3.org/1999/xlink" x="0px" y="0px"
	 width="126px" height="126px" viewBox="0 0 126 126" enable-background="new 0 0 126 126" xml:space="preserve">
<g>
	<path fill="#FFFFFF" d="M87.863,84.904v-3.362L86.3,80.85l-1.484,0.692v5.259l-3.088,1.682V84.83l-2.998,1.826v-3.357l4.38-2.483
		v-1.604l-1.486-0.983l-2.958,1.637v-5.099l-1.646-1.068l-1.636,1.068v5.099l-2.852-1.604l-1.453,0.842v1.785l4.231,2.411v3.357
		l-3.146-1.694l0.01,3.475l-2.999-1.711l0.01-4.918l-1.649-0.953l-1.346,0.908v3.288l-4.466-2.58l-1.738,0.898v2.038l4.53,2.458
		l-2.84,1.596v1.861l1.574,0.782l4.196-2.465l2.901,1.683l-2.891,1.794l2.976,1.71l0.073,0.052L67.59,96.56l-4.197-2.471L61.735,95
		v1.862l2.924,1.471l-4.675,2.557v2.038l1.901,0.802l4.457-2.515v3.231l1.356,0.899l1.604-0.995v-4.823l2.938-1.692v3.558
		l3.068-1.973v3.357l-4.231,2.403v1.802l1.456,0.834l2.851-1.605v5.108l1.634,1.059l1.646-1.058v-5.109l2.84,1.605l1.46-0.729
		v-1.906l-4.235-2.403V99.42l2.998,1.829V97.89l3.13,1.783v4.833l1.486,0.848l1.52-0.848v-3.183l4.226,2.406l1.823-0.834v-2.006
		l-4.305-2.558l2.704-1.519v-1.735L90.927,94.1l-4.308,2.407l-3.066-1.607l2.968-1.707l-2.879-1.797l2.978-1.892l4.308,2.547
		l1.454-0.806v-1.818l-2.806-1.572l4.488-2.552v-1.901l-1.605-0.979L87.863,84.904z M78.591,95.407h-2.85l-1.527-2.26l1.453-2.404
		h2.851l1.388,2.404L78.591,95.407z"/>
	<path fill="#FFFFFF" d="M46.336,81.289v-2.277l-1.061-0.469l-1.006,0.469v3.563l-2.09,1.14v-2.476l-2.029,1.239v-2.275l2.968-1.684
		v-1.085l-1.01-0.667l-2.003,1.109v-3.454l-1.114-0.724l-1.107,0.724v3.454l-1.936-1.087l-0.983,0.569v1.21l2.869,1.634v2.275
		l-2.132-1.148l0.006,2.354l-2.031-1.161l0.006-3.331l-1.119-0.646l-0.913,0.617v2.226l-3.021-1.748l-1.18,0.608v1.381l3.067,1.667
		l-1.922,1.079v1.262l1.067,0.53l2.841-1.67l1.966,1.14l-1.959,1.215l2.017,1.158l0.047,0.037l-1.972,1.138l-2.842-1.673
		l-1.123,0.616v1.262l1.981,0.996l-3.169,1.732v1.38l1.289,0.543l3.017-1.703v2.189l0.921,0.608l1.086-0.673v-3.268l1.99-1.146v2.41
		l2.082-1.336v2.272l-2.869,1.631v1.22l0.983,0.563l1.936-1.087v3.46l1.107,0.72l1.114-0.72v-3.46l1.924,1.087l0.989-0.494v-1.289
		l-2.868-1.631v-2.272l2.029,1.238v-2.276l2.119,1.209v3.274l1.007,0.573l1.031-0.573v-2.157l2.864,1.63l1.234-0.563v-1.359
		l-2.917-1.733l1.833-1.027v-1.176l-0.938-0.665l-2.919,1.632l-2.077-1.09l2.011-1.156l-1.952-1.215l2.018-1.281l2.919,1.723
		l0.984-0.543v-1.233l-1.901-1.063l3.041-1.73v-1.289l-1.088-0.663L46.336,81.289z M40.054,88.405h-1.929l-1.036-1.531l0.985-1.629
		h1.931l0.941,1.629L40.054,88.405z"/>
	<path fill="#FFFFFF" d="M97.898,14.208c-4.654,0-9.156,1.163-13.155,3.351C79.878,7.298,69.391,0.392,57.644,0.392
		c-16.036,0-29.168,12.651-29.941,28.494c-7.362,0.879-13.672,5.763-16.405,12.587C5.18,42.999,0.637,48.544,0.637,55.129
		c0,7.762,6.313,14.078,14.076,14.078h83.186c15.163,0,27.502-12.341,27.502-27.5C125.4,26.542,113.062,14.208,97.898,14.208z
		 M97.898,59.498H14.709c-2.407,0-4.369-1.96-4.369-4.369c0-2.376,1.911-4.318,4.28-4.369c0.079,0.008,0.155,0.01,0.234,0.018
		l4.106,0.134l0.811-4.029c0.98-4.885,5.321-8.43,10.313-8.43c0.6,0,1.219,0.056,1.837,0.163l6.558,1.152l-0.91-6.593
		c-0.13-0.957-0.197-1.9-0.197-2.807c0-11.175,9.094-20.267,20.269-20.267c9.601,0,17.957,6.814,19.861,16.206l1.752,8.615
		l6.361-6.076c3.324-3.178,7.686-4.93,12.283-4.93c9.813,0,17.792,7.982,17.792,17.791S107.711,59.498,97.898,59.498z"/>
</g>
</svg>
